<mxfile host="app.diagrams.net" agent="Mozilla/5.0 (Windows NT 10.0; Win64; x64) AppleWebKit/537.36 (KHTML, like Gecko) Chrome/131.0.0.0 Safari/537.36" version="26.0.2">
  <diagram id="C5RBs43oDa-KdzZeNtuy" name="Page-1">
    <mxGraphModel dx="1034" dy="446" grid="1" gridSize="10" guides="0" tooltips="1" connect="0" arrows="1" fold="1" page="1" pageScale="1" pageWidth="827" pageHeight="1169" math="0" shadow="0">
      <root>
        <mxCell id="WIyWlLk6GJQsqaUBKTNV-0" />
        <mxCell id="WIyWlLk6GJQsqaUBKTNV-1" parent="WIyWlLk6GJQsqaUBKTNV-0" />
        <mxCell id="2nbgRPsXv5yX6jpbycaC-8" style="edgeStyle=orthogonalEdgeStyle;rounded=0;orthogonalLoop=1;jettySize=auto;html=1;exitX=0.5;exitY=1;exitDx=0;exitDy=0;entryX=0.5;entryY=0;entryDx=0;entryDy=0;" edge="1" parent="WIyWlLk6GJQsqaUBKTNV-1" source="2nbgRPsXv5yX6jpbycaC-0" target="2nbgRPsXv5yX6jpbycaC-1">
          <mxGeometry relative="1" as="geometry" />
        </mxCell>
        <mxCell id="2nbgRPsXv5yX6jpbycaC-0" value="mulai" style="ellipse;whiteSpace=wrap;html=1;" vertex="1" parent="WIyWlLk6GJQsqaUBKTNV-1">
          <mxGeometry x="240" y="10" width="100" height="50" as="geometry" />
        </mxCell>
        <mxCell id="2nbgRPsXv5yX6jpbycaC-15" style="edgeStyle=orthogonalEdgeStyle;rounded=0;orthogonalLoop=1;jettySize=auto;html=1;entryX=0.5;entryY=0;entryDx=0;entryDy=0;" edge="1" parent="WIyWlLk6GJQsqaUBKTNV-1" source="2nbgRPsXv5yX6jpbycaC-1" target="2nbgRPsXv5yX6jpbycaC-13">
          <mxGeometry relative="1" as="geometry" />
        </mxCell>
        <mxCell id="2nbgRPsXv5yX6jpbycaC-1" value="bawang masuk kedalam wadah&amp;nbsp;&lt;div&gt;sensor mendeteksi&lt;/div&gt;" style="shape=parallelogram;perimeter=parallelogramPerimeter;whiteSpace=wrap;html=1;fixedSize=1;size=30;" vertex="1" parent="WIyWlLk6GJQsqaUBKTNV-1">
          <mxGeometry x="160" y="90" width="250" height="50" as="geometry" />
        </mxCell>
        <mxCell id="2nbgRPsXv5yX6jpbycaC-4" style="edgeStyle=orthogonalEdgeStyle;rounded=0;orthogonalLoop=1;jettySize=auto;html=1;exitX=0.5;exitY=1;exitDx=0;exitDy=0;" edge="1" parent="WIyWlLk6GJQsqaUBKTNV-1" source="2nbgRPsXv5yX6jpbycaC-1" target="2nbgRPsXv5yX6jpbycaC-1">
          <mxGeometry relative="1" as="geometry" />
        </mxCell>
        <mxCell id="2nbgRPsXv5yX6jpbycaC-18" style="edgeStyle=orthogonalEdgeStyle;rounded=0;orthogonalLoop=1;jettySize=auto;html=1;exitX=0.5;exitY=1;exitDx=0;exitDy=0;" edge="1" parent="WIyWlLk6GJQsqaUBKTNV-1" source="2nbgRPsXv5yX6jpbycaC-13" target="2nbgRPsXv5yX6jpbycaC-20">
          <mxGeometry relative="1" as="geometry">
            <mxPoint x="240" y="340" as="targetPoint" />
          </mxGeometry>
        </mxCell>
        <mxCell id="2nbgRPsXv5yX6jpbycaC-31" style="edgeStyle=orthogonalEdgeStyle;rounded=0;orthogonalLoop=1;jettySize=auto;html=1;entryX=0.968;entryY=0.413;entryDx=0;entryDy=0;entryPerimeter=0;" edge="1" parent="WIyWlLk6GJQsqaUBKTNV-1" source="2nbgRPsXv5yX6jpbycaC-13" target="2nbgRPsXv5yX6jpbycaC-1">
          <mxGeometry relative="1" as="geometry">
            <mxPoint x="490" y="110" as="targetPoint" />
            <Array as="points">
              <mxPoint x="440" y="235" />
              <mxPoint x="440" y="111" />
            </Array>
          </mxGeometry>
        </mxCell>
        <mxCell id="2nbgRPsXv5yX6jpbycaC-35" value="" style="edgeStyle=orthogonalEdgeStyle;rounded=0;orthogonalLoop=1;jettySize=auto;html=1;entryX=0.012;entryY=0.487;entryDx=0;entryDy=0;entryPerimeter=0;" edge="1" parent="WIyWlLk6GJQsqaUBKTNV-1" source="2nbgRPsXv5yX6jpbycaC-13" target="2nbgRPsXv5yX6jpbycaC-20">
          <mxGeometry relative="1" as="geometry">
            <mxPoint x="180" y="340" as="targetPoint" />
            <Array as="points">
              <mxPoint x="181" y="235" />
              <mxPoint x="181" y="363" />
            </Array>
          </mxGeometry>
        </mxCell>
        <mxCell id="2nbgRPsXv5yX6jpbycaC-13" value="apakah ada bawang" style="rhombus;whiteSpace=wrap;html=1;" vertex="1" parent="WIyWlLk6GJQsqaUBKTNV-1">
          <mxGeometry x="235" y="190" width="100" height="90" as="geometry" />
        </mxCell>
        <mxCell id="2nbgRPsXv5yX6jpbycaC-20" value="&lt;h4 style=&quot;&quot;&gt;&lt;span style=&quot;background-color: transparent; color: light-dark(rgb(0, 0, 0), rgb(255, 255, 255)); font-weight: normal;&quot;&gt;&lt;font face=&quot;Times New Roman&quot;&gt;motor dc bergerak Dan memotong&lt;/font&gt;&lt;/span&gt;&lt;/h4&gt;" style="rhombus;whiteSpace=wrap;html=1;align=center;" vertex="1" parent="WIyWlLk6GJQsqaUBKTNV-1">
          <mxGeometry x="215" y="300" width="140" height="130" as="geometry" />
        </mxCell>
        <mxCell id="2nbgRPsXv5yX6jpbycaC-27" value="Tidak" style="text;html=1;align=center;verticalAlign=middle;resizable=0;points=[];autosize=1;strokeColor=none;fillColor=none;" vertex="1" parent="WIyWlLk6GJQsqaUBKTNV-1">
          <mxGeometry x="390" y="150" width="50" height="30" as="geometry" />
        </mxCell>
        <mxCell id="2nbgRPsXv5yX6jpbycaC-39" value="tidak" style="text;html=1;align=center;verticalAlign=middle;whiteSpace=wrap;rounded=0;" vertex="1" parent="WIyWlLk6GJQsqaUBKTNV-1">
          <mxGeometry x="170" y="250" width="60" height="30" as="geometry" />
        </mxCell>
        <mxCell id="2nbgRPsXv5yX6jpbycaC-40" value="ya" style="text;html=1;align=center;verticalAlign=middle;resizable=0;points=[];autosize=1;strokeColor=none;fillColor=none;" vertex="1" parent="WIyWlLk6GJQsqaUBKTNV-1">
          <mxGeometry x="285" y="260" width="40" height="30" as="geometry" />
        </mxCell>
        <mxCell id="2nbgRPsXv5yX6jpbycaC-41" value="ya" style="text;html=1;align=center;verticalAlign=middle;resizable=0;points=[];autosize=1;strokeColor=none;fillColor=none;" vertex="1" parent="WIyWlLk6GJQsqaUBKTNV-1">
          <mxGeometry x="280" y="150" width="40" height="30" as="geometry" />
        </mxCell>
        <mxCell id="2nbgRPsXv5yX6jpbycaC-51" value="" style="edgeStyle=orthogonalEdgeStyle;rounded=0;orthogonalLoop=1;jettySize=auto;html=1;" edge="1" parent="WIyWlLk6GJQsqaUBKTNV-1" source="2nbgRPsXv5yX6jpbycaC-42" target="2nbgRPsXv5yX6jpbycaC-45">
          <mxGeometry relative="1" as="geometry">
            <Array as="points">
              <mxPoint x="290" y="560" />
              <mxPoint x="290" y="560" />
            </Array>
          </mxGeometry>
        </mxCell>
        <mxCell id="2nbgRPsXv5yX6jpbycaC-42" value="Proses pemotongan bawang" style="rounded=0;whiteSpace=wrap;html=1;" vertex="1" parent="WIyWlLk6GJQsqaUBKTNV-1">
          <mxGeometry x="230" y="450" width="120" height="30" as="geometry" />
        </mxCell>
        <mxCell id="2nbgRPsXv5yX6jpbycaC-44" style="edgeStyle=orthogonalEdgeStyle;rounded=0;orthogonalLoop=1;jettySize=auto;html=1;entryX=0.458;entryY=0;entryDx=0;entryDy=0;entryPerimeter=0;" edge="1" parent="WIyWlLk6GJQsqaUBKTNV-1" source="2nbgRPsXv5yX6jpbycaC-20" target="2nbgRPsXv5yX6jpbycaC-42">
          <mxGeometry relative="1" as="geometry" />
        </mxCell>
        <mxCell id="2nbgRPsXv5yX6jpbycaC-55" value="" style="edgeStyle=orthogonalEdgeStyle;rounded=0;orthogonalLoop=1;jettySize=auto;html=1;" edge="1" parent="WIyWlLk6GJQsqaUBKTNV-1" source="2nbgRPsXv5yX6jpbycaC-45" target="2nbgRPsXv5yX6jpbycaC-54">
          <mxGeometry relative="1" as="geometry">
            <Array as="points">
              <mxPoint x="290" y="580" />
              <mxPoint x="290" y="580" />
            </Array>
          </mxGeometry>
        </mxCell>
        <mxCell id="2nbgRPsXv5yX6jpbycaC-45" value="Ambil bawang dari wadah" style="shape=parallelogram;perimeter=parallelogramPerimeter;whiteSpace=wrap;html=1;fixedSize=1;" vertex="1" parent="WIyWlLk6GJQsqaUBKTNV-1">
          <mxGeometry x="210" y="510" width="170" height="50" as="geometry" />
        </mxCell>
        <mxCell id="2nbgRPsXv5yX6jpbycaC-54" value="Selesai" style="ellipse;whiteSpace=wrap;html=1;" vertex="1" parent="WIyWlLk6GJQsqaUBKTNV-1">
          <mxGeometry x="210" y="580" width="160" height="40" as="geometry" />
        </mxCell>
      </root>
    </mxGraphModel>
  </diagram>
</mxfile>
